<svg xmlns="http://www.w3.org/2000/svg" xmlns:xlink="http://www.w3.org/1999/xlink" width="220" height="220" viewBox="0 0 220 220">
    <defs>
        <filter id="a" width="115%" height="115%" x="-7.5%" y="-7.5%" filterUnits="objectBoundingBox">
            <feOffset in="SourceAlpha" result="shadowOffsetOuter1"/>
            <feGaussianBlur in="shadowOffsetOuter1" result="shadowBlurOuter1" stdDeviation="5"/>
            <feColorMatrix in="shadowBlurOuter1" result="shadowMatrixOuter1" values="0 0 0 0 0 0 0 0 0 0 0 0 0 0 0 0 0 0 0.2 0"/>
            <feMerge>
                <feMergeNode in="shadowMatrixOuter1"/>
                <feMergeNode in="SourceGraphic"/>
            </feMerge>
        </filter>
        <path id="b" d="M200 0v200H0V0h200z"/>
        <linearGradient id="e" x1="50%" x2="50%" y1="0%" y2="100%">
            <stop offset="0%" stop-color="#00E300"/>
            <stop offset="100%" stop-color="#00C300"/>
        </linearGradient>
        <path id="d" d="M0 83.096l.001-.396c.191-40.67 34.347-51.787 56.836-53.617a2.351 2.351 0 0 0 2.16-2.342v-3.018c0-.887-.512-1.685-1.302-2.098-3.64-1.901-6.126-5.684-6.126-10.054C51.57 5.294 56.687.206 63.006.2h.023c.242 0 .487.008.732.024 5.678.356 10.303 4.934 10.68 10.573.305 4.566-2.11 8.584-5.786 10.652a2.353 2.353 0 0 0-1.21 2.048v3.194a2.35 2.35 0 0 0 2.155 2.34c21.32 1.771 51.12 13.954 51.188 53.009v.497c-.204 43.315-34.32 51.163-53.223 51.076-16.583-.078-20.326-1.377-24.84.552-4.498 1.922-4.545 9.617-9.253 9.633h-.034C26.959 143.766 0 122.04 0 83.097z"/>
    </defs>
    <g fill="none" fill-rule="evenodd" filter="url(#a)" transform="translate(10 10)">
        <mask id="c" fill="#fff">
            <use xlink:href="#b"/>
        </mask>
        <path fill="#FFF" d="M172.004 200H27.997C12.534 200 0 187.466 0 172.004V27.997C0 12.534 12.534 0 27.997 0h144.007C187.466 0 200 12.534 200 27.997v144.007C200 187.466 187.466 200 172.004 200" mask="url(#c)"/>
        <g>
            <g transform="translate(38.776 28.356)">
                <mask id="f" fill="#fff">
                    <use xlink:href="#d"/>
                </mask>
                <use fill="url(#e)" xlink:href="#d"/>
                <path d="M63.006.2C56.687.205 51.569 5.293 51.569 11.57c0 4.37 2.485 8.153 6.126 10.054.79.413 1.301 1.21 1.301 2.098v3.018a2.351 2.351 0 0 1-2.16 2.342C34.349 30.913.193 42.03.002 82.7c-.184 39.192 26.936 61.066 33.437 61.097h.034c4.708-.016 4.755-7.711 9.254-9.633 4.513-1.929 8.256-.63 24.839-.552 18.903.087 53.019-7.76 53.222-51.076l.001-.22v-.277C120.72 42.984 90.92 30.8 69.6 29.03a2.35 2.35 0 0 1-2.156-2.34v-3.194c0-.85.466-1.628 1.211-2.048 3.677-2.068 6.091-6.086 5.786-10.652C74.064 5.157 69.44.58 63.761.223a11.78 11.78 0 0 0-.732-.024h-.023z" mask="url(#f)"/>
            </g>
            <path fill="#FFF" d="M120.11 101.549c4.047 0 7.34 3.271 7.34 7.291 0 4.02-3.293 7.291-7.34 7.291-4.048 0-7.341-3.271-7.341-7.291 0-4.02 3.293-7.291 7.34-7.291m-41.879 0c4.047 0 7.34 3.271 7.34 7.291 0 4.02-3.293 7.291-7.34 7.291-4.048 0-7.34-3.271-7.34-7.291 0-4.02 3.292-7.291 7.34-7.291m57.466 7.291c0-8.55-6.978-15.481-15.587-15.481-8.608 0-15.586 6.93-15.586 15.481 0 5.218 2.601 9.83 6.584 12.635a42.143 42.143 0 0 1-11.937 1.722 42.14 42.14 0 0 1-11.938-1.722c3.983-2.805 6.585-7.417 6.585-12.635 0-8.55-6.98-15.481-15.587-15.481-8.609 0-15.587 6.93-15.587 15.481 0 5.478 2.867 10.287 7.188 13.04.181.186.382.36.604.514 8.129 5.664 18.059 8.995 28.735 8.993 10.674.001 20.605-3.33 28.733-8.992.223-.155.424-.329.606-.516 4.321-2.752 7.187-7.561 7.187-13.039"/>
        </g>
    </g>
</svg>
