<svg xmlns="http://www.w3.org/2000/svg" viewBox="0 0 98 24"><path fill="#333" d="M54.4 12.1l-1.4-.3c-1.1-.2-1.8-.4-1.8-1.2-.1-.8.6-1.6 1.8-1.6 2.1 0 2.2 1.7 3.5 1.7.9 0 1.4-.4 1.4-1.2 0-1.6-2.5-2.6-5.2-2.6-2.4 0-5.2 1.1-5.2 4 0 2.3 1.6 3.2 3.6 3.7l2 .5c1.2.3 2 .5 2 1.3 0 .7-.8 1.4-2 1.4-2.5 0-2.7-2.2-4.2-2.2-1 0-1.4.7-1.4 1.5 0 1.7 2.6 3.1 5.7 3.1 2.6 0 5.3-1.3 5.3-4.2.1-2.6-2.2-3.4-4.1-3.9zM40 6.9c-4.1 0-6.4 2.9-6.4 6.5 0 3.5 1.7 6.5 6.4 6.5s6.4-3.1 6.4-6.5c0-3.7-2.2-6.5-6.4-6.5zm0 11c-2.1 0-2.9-2.4-2.9-4.5 0-2.3.9-4.4 2.9-4.4s2.9 2.1 2.9 4.4c.1 2.1-.8 4.5-2.9 4.5zm-12.2-11c-1.7 0-3 .6-3.7 1.5V3.7c0-1.1-.7-1.7-1.7-1.7s-1.7.6-1.7 1.7v14.5c0 .9.4 1.7 1.7 1.7 1.3 0 1.7-.8 1.7-1.7v-5.7c0-1.7 1.4-2.7 2.6-2.7 1.5 0 2.2 1 2.2 2.4v6.1c0 .9.4 1.7 1.7 1.7 1.3 0 1.7-.8 1.7-1.7v-6.8c0-3.6-2.4-4.6-4.5-4.6zm42 8.1c-1.8 0-1.3 2.5-3.7 2.5-1.9 0-2.9-1.7-2.9-3.9 0-2.9 1-4.5 2.6-4.5 2.7 0 1.8 2.2 3.9 2.2.8 0 1.2-.5 1.2-1.2 0-1.7-2.4-3.4-5-3.4-4 0-6.1 2.5-6.1 6.8 0 3.6 2 6.3 6.3 6.3 3.5 0 5.2-2.1 5.2-3.6 0-.7-.6-1.2-1.5-1.2zm14.4-4.6c0-2.5-2.3-3.6-5.6-3.6-3.5 0-5.5 1.7-5.5 3.1 0 .7.6 1.3 1.5 1.3 1.4 0 1.4-2.3 4-2.3 1.2 0 2.2.6 2.2 1.6s-.7 1.4-1.5 1.5l-2.1.2c-2.6.3-4.8 1.1-4.8 4 0 2.2 1.9 3.5 3.9 3.5 1.8 0 3.4-.5 4.7-2 0 1.1.5 2 2 2 .8 0 1.6-.5 1.6-1.3 0-.5-.4-.9-.4-2.3v-5.7zm-3.5 4.3c0 1.6-1.5 3-3 3-1.2 0-1.9-.6-1.9-1.5 0-1.2.8-1.7 2.2-2l1.2-.2c.4-.1 1.1-.2 1.5-.6v1.3zM94.3 2c-1 0-1.7.6-1.7 1.7v14.5c0 1.1.7 1.7 1.7 1.7s1.7-.6 1.7-1.7V3.7c0-1.1-.7-1.7-1.7-1.7zm-5.9 0c-1 0-1.7.6-1.7 1.7v14.5c0 1.1.7 1.7 1.7 1.7s1.7-.6 1.7-1.7V3.7c0-1.1-.7-1.7-1.7-1.7zM17.6 6.9c-.8 0-1.4.5-1.6 1.3l-1.7 6.7-1.7-6.7c-.2-.8-.8-1.3-1.6-1.3h-.7c-.8 0-1.5.6-1.6 1.3l-1.6 6.7-1.7-6.7c-.2-.8-.9-1.3-1.6-1.3h-.2c-1.1 0-1.8 1-1.5 2.1l2.6 9.3c.3 1 1.1 1.7 2.1 1.7s2-.7 2.2-1.8l1.7-6.6 1.6 6.6c.2 1 1.1 1.8 2.2 1.8 1 0 1.9-.7 2.1-1.6L19.2 9c.3-1.1-.5-2.1-1.6-2.1z"/></svg>