<?xml version="1.0" encoding="utf-8"?><!DOCTYPE svg PUBLIC "-//W3C//DTD SVG 1.1//EN" "http://www.w3.org/Graphics/SVG/1.1/DTD/svg11.dtd"><svg width="244" height="1075" viewBox="0 0 244 1075" xmlns="http://www.w3.org/2000/svg" xmlns:xlink="http://www.w3.org/1999/xlink"><view id="arrow-d" viewBox="0 0 34 34"/><svg width="34" height="34" viewBox="-2 -2 34 34" id="arrow-d-" xmlns="http://www.w3.org/2000/svg"><path fill="#FFF" d="M12.451 13.85c0-.1 0-.199.1-.199.101-.1.101-.1.2-.1h4.5c.1 0 .199 0 .199.1.1.1.1.1.1.199s0 .201-.1.201l-2.2 2.299c-.1.1-.1.1-.201.1-.1 0-.199 0-.199-.1l-2.299-2.299c-.1 0-.1-.102-.1-.201z"/></svg><view id="back" viewBox="0 34 30 30"/><svg viewBox="-2 -2 30 30" width="30" height="30" id="back-" y="34" xmlns="http://www.w3.org/2000/svg"><path fill-rule="evenodd" clip-rule="evenodd" fill="#444" d="M22 12H7.4L14 5.4 12.6 4 4 12.6v.8l8.6 8.6 1.4-1.4L7.4 14H22z"/></svg><view id="clock" viewBox="0 64 34 34"/><svg viewBox="-2 -2 34 34" width="34" height="34" id="clock-" y="64" xmlns="http://www.w3.org/2000/svg"><path fill="#7A7A7A" d="M15 .7C7.1.7.7 7.1.7 15S7.1 29.3 15 29.3 29.3 22.9 29.3 15 22.9.7 15 .7zm8.4 14.6l-7.8 3.5-.1.1c-.1.1-.3.1-.4.1h-.2c-.4 0-.7-.2-.9-.6-.1-.2-.1-.3-.1-.5L8.8 7.8c-.3-.5-.1-1.1.4-1.3.5-.3 1.1-.1 1.3.4l4.9 9.7 7-3.1c.5-.2 1.1 0 1.3.5.4.5.2 1.1-.3 1.3z"/></svg><view id="color-facebook" viewBox="0 98 48 48"/><svg width="48" height="48" viewBox="-2 -2 48 48" id="color-facebook-" y="98" xmlns="http://www.w3.org/2000/svg"><path fill="#395590" d="M22 0C9.8 0 0 9.8 0 22c0 12.1 9.8 22 22 22 12.1 0 22-9.8 22-22S34.1 0 22 0zm5.3 15.8c-.7-.5-1.6-.8-2.3-.8-.7 0-1.8.2-2.1.5-.3.3-.5.9-.5 1.9v1.5h4.3l-.8 3.2h-3.5V33h-4.5V22.1h-2.3v-3.2h2.3v-2c0-1.5.2-2.4.5-3.2.3-.7 1-1.6 1.9-2s2.3-.7 3.7-.7c1.4 0 3 .4 4.3.8l-1 4z"/></svg><view id="color-twitter" viewBox="0 146 48 48"/><svg width="48" height="48" viewBox="-2 -2 48 48" id="color-twitter-" y="146" xmlns="http://www.w3.org/2000/svg"><path fill="#1FA0DA" d="M22 0C9.9 0 0 9.9 0 22c0 12.2 9.8 22 22 22 12.1 0 22-9.8 22-22C44 9.9 34.2 0 22 0zm9.8 17.8v.3c0 6-4.5 13-12.8 13-2.5 0-4.9-.8-6.9-2.1.4 0 .7.1 1.1.1 2.1 0 4.1-.7 5.6-2-2 0-3.6-1.4-4.2-3.2.3.1.6.1.8.1.4 0 .8-.1 1.2-.2-2.1-.4-3.6-2.3-3.6-4.5v-.1c.6.3 1.3.5 2 .6-1.2-.8-2-2.2-2-3.8 0-.8.2-1.6.6-2.3 2.2 2.8 5.6 4.6 9.3 4.8-.1-.3-.1-.7-.1-1 0-2.5 2-4.6 4.5-4.6 1.3 0 2.5.6 3.3 1.4 1-.2 2.1-.8 2.9-1.3-.3 1.1-1.1 2.3-2 2.9.9-.1 1.7-.3 2.6-.6-.6.9-1.4 1.8-2.3 2.5z"/></svg><view id="earth" viewBox="0 194 34 34"/><svg viewBox="-2 -2 34 34" width="34" height="34" id="earth-" y="194" xmlns="http://www.w3.org/2000/svg"><path fill="#7A7A7A" d="M15 .9C7.2.9.9 7.2.9 15s6.3 14.1 14.2 14.1c7.8 0 14.1-6.3 14.1-14.1C29.1 7.2 22.8.9 15 .9zm11.2 10.7c-.1-.3.2-.6.2-1l.2-1c.5 1 .8 2.1 1 3.3-.4-.3-1-.5-1.3-.9 0-.2 0-.3-.1-.4zm-2-5.7c.5.5 1 1.1 1.4 1.7-.2-.1-.4-.1-.6-.2-.4-.1-.7-.2-1-.5l-.4-.4c-.1-.2-.1-.2 0-.3.1 0 .6-.3.6-.3zM2.1 15c0-1.8.4-3.5 1-5l1.7 2.2.8 1.4.6 1.4.4.4c.2.3.4.6.7.9.2.3.5.5.7.8.3.4.3.8.3 1.2v.8c0 .4.1.8.2 1.3 0 .2 0 .5.1.7.1.3.4.5.6.7.2.2.3.5.5.7l1.1 1c.2.2.5.3.7.5.2.3.1.6.1.9v.6c0 .6.5.9.9 1.2l.6.9.4.2C7.1 27.1 2.1 21.6 2.1 15zM14 27.9c0-.3-.1-.6-.1-.9 0-.4.3-.4.7-.6.2-.1.3-.1.5-.2.3-.1.4-.2.6-.5.1-.2.3-.4.4-.6.1-.2.3-.7.5-.9.2-.1.3-.3.5-.4.2-.2.4-.4.6-.5.2-.2.3-.4.4-.7.2-.4.4-.6.4-1v-.8l-.6-.6c-.3-.3-.5-.6-1-.7-.3 0-.6-.1-.9-.2l-.6-.3c-.4-.2-.9-.3-1.2-.7-.2-.2-.4-.6-.6-.8-.4-.3-.7-.5-1.1-.8-.2-.2-.5-.3-.7-.5-.3-.2-.5-.2-.9-.1l-1.6.1c-.3 0-.7.1-1 .2-.5.1-.6-.4-.8-.8l-.7-1-.2-1.2v-.8c0-.3-.1-.7 0-1 0-.3.4-.4.6-.6.1-.1.3-.3.4-.1.1.1.1.4.2.6.1.2.1.3.2.5s.1.4.2.7c0 .1.1.6.2.7.1.1.3 0 .4-.1.1 0 .2 0 .2-.1.1-.1 0-.6-.1-.7 0-.2-.1-.5-.1-.7 0-.3.2-.6.3-.9.1-.3.3-.5.5-.7.3-.3.7-.6 1-.9l1.3-1.5.6-.6.5-.5.3-.3c.1-.1.3-.1.5-.1.3 0 .6.1.7-.3 0-.4 0-.9-.1-1.3 0-.3-.1-.6-.1-.9 0-.2-.1-.7-.3-.8-.1-.1-.5.2-.6.2l-.6.3c-.1 0-.2.1-.3.1L11.6 5c-.2.2-.1.5-.3.7-.2.3-.7 0-.9-.1-.1 0-.4 0-.5-.2-.1-.1.2-.7.2-.8.1-.4.2-.8.6-1 .3-.1.6-.1.8-.3.1-.1.1-.1.1-.3v-.5c1.1-.3 2.2-.5 3.4-.5 2.1 0 4.1.5 5.9 1.4v.8c-.1.5-.1 1-.4 1.4-.2.2-.4.4-.5.6-.1.2-.3.4-.4.6-.1.2-.1.5-.2.8-.1.2-.1.5-.2.7V9c0 .4.3.2.5 0 .2 0 .3-.1.5-.2l.7-.7c.2 0 .4-.1.6-.1.2 0 .3-.1.5-.1.5-.1.9.2 1.3.4.3.1.5.3.8.4.4 0 .8-.1 1.2.1.1 0 .8.6.8.6-.1.2-.2.5-.4.7-.2.2-.6 0-.9 0 0 0-.1.8-.3.9-.3.1-.6.5-.9.5-.2 0-.6-.2-.8-.2-.2-.1-.2-.2-.3-.4 0-.1-.3-.6-.4-.6-.3 0-.7-.1-1 0-.5.1-.8.6-1.2.9-.3.2-.9.5-.9.9-.1.6-.3 1.2-.3 1.8v1.4c0 .4.2.9.3 1.2.1.2.1.5.2.7.1.3.3.4.5.5.2.1.3.3.5.3H22.6c.5 0 .9 0 1.4.2.2.1.2.3.3.5 0 .2.1.5.1.7 0 .6-.1 1.1-.2 1.6 0 .4-.1.7-.1 1.1l-.1 2.4c-2.3 2.1-5.4 3.4-8.7 3.4H14z"/></svg><view id="footer-facebook" viewBox="0 228 36 36"/><svg viewBox="-2 -2 36 36" width="36" height="36" id="footer-facebook-" y="228" xmlns="http://www.w3.org/2000/svg"><path fill="#999" d="M25 5H7c-1.1 0-2 .9-2 2v18c0 1.1.9 2 2 2h10v-8h-2.5v-3H17v-2.5c0-2.4 2.4-3.6 3.3-3.5 1 0 2.6.1 2.6.1v2.8H21c-1.1 0-1.1 1.2-1.1 1.2V16h2.9l-.4 3H20v8h5c1.1 0 2-.9 2-2V7c0-1.1-.9-2-2-2z"/></svg><view id="footer-facebook-new" viewBox="0 264 52 52"/><svg width="52" height="52" viewBox="-2 -2 52 52" id="footer-facebook-new-" y="264" xmlns="http://www.w3.org/2000/svg"><path fill="#263147" fill-rule="evenodd" d="M26.211 30.487V48h6.517V30.487h5.406l.973-6.497h-6.379v-4.176s-.161-2.573 2.337-2.573h4.208v-6.134s-3.684-.164-5.761-.198c-2.079-.033-7.3 2.375-7.3 7.718v5.363h-5.485v6.497h5.484zM4.364 0h39.272A4.364 4.364 0 0 1 48 4.364v39.272A4.364 4.364 0 0 1 43.636 48H4.364A4.364 4.364 0 0 1 0 43.636V4.364A4.364 4.364 0 0 1 4.364 0z"/></svg><view id="footer-google" viewBox="0 316 36 36"/><svg viewBox="-2 -2 36 36" width="36" height="36" id="footer-google-" y="316" xmlns="http://www.w3.org/2000/svg"><path fill="#999" d="M16 4C9.4 4 4 9.4 4 16s5.4 12 12 12 12-5.4 12-12S22.6 4 16 4zm-3 17c-2.8 0-5-2.2-5-5s2.2-5 5-5c1.3 0 2.5.5 3.4 1.3l-1.5 1.4c-.5-.4-1.2-.7-1.9-.7-1.6 0-2.9 1.3-2.9 2.9s1.3 2.9 2.9 2.9c1.3 0 2.3-.8 2.8-1.9H13V15h5c.1.3.1.7.1 1-.1 2.8-2.3 5-5.1 5zm11-4.9h-1.8V18h-1.3v-1.9H19v-1.2h1.8V13h1.3v1.9H24v1.2z"/></svg><view id="footer-google-new" viewBox="0 352 54 54"/><svg width="54" height="54" viewBox="-2 -2 54 54" id="footer-google-new-" y="352" xmlns="http://www.w3.org/2000/svg"><path fill="#263147" fill-rule="evenodd" d="M25 0c13.807 0 25 11.193 25 25S38.807 50 25 50 0 38.807 0 25 11.193 0 25 0zm17.324 25.787v-2.625h-3.665v-3.608h-2.664v3.608H32.33v2.625h3.665v3.61h2.664v-3.61h3.665zm-22.652 9.58c5.814 0 10.526-4.641 10.526-10.367 0-.743-.08-1.467-.23-2.165H19.54v4.33h5.926c-.886 2.301-3.146 3.937-5.793 3.937-3.422 0-6.196-2.731-6.196-6.102 0-3.37 2.774-6.102 6.196-6.102 1.525 0 2.92.543 4 1.443l3.101-2.991a10.57 10.57 0 0 0-7.1-2.718C13.86 14.632 9.147 19.275 9.147 25c0 5.726 4.713 10.367 10.526 10.367z"/></svg><view id="footer-twitter" viewBox="0 406 36 36"/><svg viewBox="-2 -2 36 36" width="36" height="36" id="footer-twitter-" y="406" xmlns="http://www.w3.org/2000/svg"><path fill="#999" d="M28 9.2c-.9.4-1.8.6-2.8.8 1-.6 1.8-1.5 2.2-2.7-1 .5-2 .9-3.1 1.2-1-.9-2.3-1.5-3.7-1.5-2.7 0-4.9 2.1-4.9 4.8 0 .4 0 .7.1 1.1-4.1-.2-7.7-2.1-10.1-5-.5.7-.7 1.5-.7 2.4 0 1.7.9 3.1 2.2 4-.8 0-1.6-.2-2.2-.6v.1c0 2.3 1.7 4.3 3.9 4.7-.4.1-.8.2-1.3.2-.3 0-.6 0-.9-.1.6 1.9 2.4 3.3 4.6 3.3C9.6 23.2 7.5 24 5.2 24c-.4 0-.8 0-1.2-.1 2.2 1.4 4.8 2.2 7.5 2.2 9.1 0 14-7.3 14-13.6v-.6c1-.8 1.8-1.7 2.5-2.7z"/></svg><view id="footer-twitter-new" viewBox="0 442 56 45"/><svg width="56" height="45" viewBox="-2 -2 56 45" id="footer-twitter-new-" y="442" xmlns="http://www.w3.org/2000/svg"><path fill="#263147" fill-rule="evenodd" d="M52 4.818a21.97 21.97 0 0 1-6.127 1.618c2.202-1.272 3.894-3.285 4.69-5.684a21.855 21.855 0 0 1-6.774 2.493C41.843 1.248 39.07 0 36.002 0 30.11 0 25.333 4.6 25.333 10.273c0 .806.094 1.59.276 2.343-8.866-.429-16.727-4.52-21.99-10.735a9.929 9.929 0 0 0-1.444 5.165c0 3.564 1.883 6.71 4.747 8.552a10.947 10.947 0 0 1-4.833-1.286l-.001.13c0 4.977 3.677 9.13 8.558 10.074a11.058 11.058 0 0 1-4.817.175c1.357 4.082 5.297 7.053 9.965 7.135-3.65 2.756-8.25 4.398-13.25 4.398-.86 0-1.71-.048-2.544-.143 4.72 2.914 10.329 4.616 16.354 4.616 19.623 0 30.353-15.656 30.353-29.231 0-.447-.01-.89-.03-1.33A21.251 21.251 0 0 0 52 4.819"/></svg><view id="ic_expand" viewBox="0 487 20 20"/><svg width="20" height="20" viewBox="-2 -2 20 20" id="ic_expand-" y="487" xmlns="http://www.w3.org/2000/svg"><path fill="#888" d="M14 5.8L12.7 5 8 9.2 3.3 5 2 5.8l5.7 5.1v.1h.6z"/></svg><view id="ic_post_edit" viewBox="0 507 34 34"/><svg width="34" height="34" viewBox="-2 -2 34 34" id="ic_post_edit-" y="507" xmlns="http://www.w3.org/2000/svg"><path fill-rule="evenodd" clip-rule="evenodd" fill="#999" d="M7 13c-1.1 0-2 .9-2 2s.9 2 2 2 2-.9 2-2-.9-2-2-2zm8 0c-1.1 0-2 .9-2 2s.9 2 2 2 2-.9 2-2-.9-2-2-2zm8 0c-1.1 0-2 .9-2 2s.9 2 2 2 2-.9 2-2-.9-2-2-2z"/></svg><view id="large-logo" viewBox="0 541 244 54"/><svg viewBox="-2 -2 244 54" width="244" height="54" id="large-logo-" y="541" xmlns="http://www.w3.org/2000/svg"><path fill="#2EC71F" d="M39.8 14.4c-1.7 0-3.6 1.1-4.1 2.8 0 0-4.5 14-4.8 14.8-.2.6-1 .6-1.3 0-.3-.8-4.7-14.6-4.7-14.6-.8-2.2-3.2-3.4-5.4-2.7-2.2.8-3.5 3-2.7 5.2 0 0 1.6 5.6 1.7 5.9.1.3.1.8-.1 1.4-.2.4-2.4 6-2.6 6.3-.3.6-1.1.6-1.3 0-.3-.8-5.9-16.2-5.9-16.2-.8-2.2-3.2-3.4-5.4-2.7C1 15.4-.2 17.8.6 20l9 24.4c.9 2.3 2.5 3.1 4.3 3.1 1.8 0 3.6-.9 5.1-3.9.7-1.6 2.1-4.6 3.4-7.8l2.9 8.6c.8 2.2 2.5 3.1 4.3 3.1s3.8-.6 5.1-3.9c1.7-4.3 7.6-21.3 8.3-24.2.7-2.7-.7-4.8-3.2-5zm-.1 0c.1 0 .1 0 0 0h.3-.3zm25.7.2c-4.5 0-7.7 1.5-9.5 3.8h-.1V6.7c0-2.9-1.7-4.4-4.4-4.4S47 3.8 47 6.7v36.5c0 2.3 1 4.4 4.4 4.4s4.4-2 4.4-4.4V28.7c0-4.4 3.6-6.9 6.7-6.9 3.8 0 5.5 2.5 5.5 6.1v15.3c0 2.3 1 4.4 4.4 4.4s4.4-2 4.4-4.4V26.1c0-8.9-6.1-11.5-11.4-11.5zm31.1 0C86 14.6 80.3 21.8 80.3 31c0 8.8 4.3 16.5 16.2 16.5 12 0 16.2-7.8 16.2-16.5.1-9.2-5.6-16.4-16.2-16.4zm0 27.7c-5.2 0-7.5-6-7.5-11.3 0-5.7 2.3-11.1 7.5-11.1S104 25.3 104 31c0 5.4-2.2 11.3-7.5 11.3zm36.6-14.5l-3.7-.8c-2.7-.6-4.7-1.1-4.7-3.1 0-1.9 1.8-3.8 4.9-3.8 5.5 0 5.6 4.2 9 4.2 2.3 0 3.6-1.1 3.6-3.1 0-4.1-6.5-6.7-13.1-6.7-6.1 0-13.2 2.8-13.2 10 0 5.9 4 8 9.1 9.3l5.2 1.3c3.1.8 5 1.1 5 3.4 0 1.8-2 3.4-5.1 3.4-6.5 0-6.8-5.7-10.6-5.7-2.5 0-3.5 1.8-3.5 3.7 0 4.4 6.6 7.9 14.5 7.9 6.6 0 13.5-3.3 13.5-10.5 0-6.3-6-8.4-10.9-9.5zm39.4 7.2c-4.6 0-3.3 6.4-9.4 6.4-4.8 0-7.4-4.3-7.4-9.8 0-7.3 2.5-11.3 6.7-11.3 7 0 4.6 5.6 9.9 5.6 2 0 3-1.4 3-2.9 0-4.3-6.1-8.5-12.8-8.5-10.1 0-15.7 6.2-15.7 17.1 0 9.2 5.2 15.9 16 15.9 9 0 13.3-5.3 13.3-9.1 0-2-1.4-3.4-3.6-3.4zM209 23.6c0-6.3-5.8-9-14.2-9-9 0-13.9 4.3-13.9 7.8 0 1.8 1.5 3.4 3.7 3.4 3.5 0 3.7-5.7 10.2-5.7 2.9 0 5.5 1.6 5.5 4.1s-1.7 3.5-3.8 3.8l-5.3.6c-6.7.8-12.3 2.8-12.3 10.1 0 5.5 4.9 9 9.9 9 4.6 0 8.6-1.3 12-5.1.1 2.7 1.4 5.1 5.2 5.1 2.1 0 4-1.4 4-3.4 0-1.4-.9-2.2-.9-5.9V23.6zm-8.7 10.8c0 4-3.9 7.5-7.8 7.5-3 0-4.9-1.5-4.9-3.8 0-3 2-4.3 5.6-5l3.2-.6c1-.2 2.8-.6 3.8-1.6v3.5zm19.6-32.1c-2.6 0-4.5 1.5-4.5 4.4v36.5c0 2.9 1.7 4.4 4.4 4.4 2.6 0 4.4-1.5 4.4-4.4V6.7c0-2.9-1.7-4.4-4.3-4.4zm15.4 0c-2.6 0-4.5 1.5-4.5 4.4v36.5c0 2.9 1.7 4.4 4.4 4.4s4.4-1.5 4.4-4.4V6.7c0-2.9-1.6-4.4-4.3-4.4z"/></svg><view id="more" viewBox="0 595 44 44"/><svg viewBox="-2 -2 44 44" width="44" height="44" id="more-" y="595" xmlns="http://www.w3.org/2000/svg"><path fill-rule="evenodd" clip-rule="evenodd" fill="#777" d="M20 15c1.1 0 2-.9 2-2s-.9-2-2-2-2 .9-2 2 .9 2 2 2zm0 3c-1.1 0-2 .9-2 2s.9 2 2 2 2-.9 2-2-.9-2-2-2zm0 7c-1.1 0-2 .9-2 2s.9 2 2 2 2-.9 2-2-.9-2-2-2z"/></svg><view id="navbar-search" viewBox="0 639 30 30"/><svg viewBox="-2 -2 30 30" width="30" height="30" id="navbar-search-" y="639" xmlns="http://www.w3.org/2000/svg"><path fill-rule="evenodd" clip-rule="evenodd" fill="#444" d="M22 20.6l-4.5-4.5c.9-1.2 1.5-2.7 1.5-4.4 0-4-3.4-7.7-7.5-7.7S4 7.7 4 11.7 7.4 19 11.5 19c1.7 0 3.3-.6 4.6-1.5l4.5 4.5 1.4-1.4zm-10.5-3.5c-3.1 0-5.6-2.5-5.6-5.6 0-3.1 2.5-5.6 5.6-5.6 3.1 0 5.6 2.5 5.6 5.6 0 3.1-2.5 5.6-5.6 5.6z"/></svg><view id="navbar-search-dark-blue" viewBox="0 669 52 52"/><svg width="52" height="52" viewBox="-2 -2 52 52" id="navbar-search-dark-blue-" y="669" xmlns="http://www.w3.org/2000/svg"><g fill="#263147" fill-rule="evenodd"><path d="M27.474 31.06l3.586-3.586L47.5 43.912l-3.587 3.587z"/><path fill-rule="nonzero" d="M18.687 32.513c7.636 0 13.826-6.19 13.826-13.826S26.323 4.86 18.687 4.86 4.86 11.05 4.86 18.687s6.19 13.826 13.826 13.826zm0 4.86C8.367 37.373 0 29.007 0 18.687S8.366 0 18.687 0c10.32 0 18.686 8.366 18.686 18.687 0 10.32-8.366 18.686-18.686 18.686z"/></g></svg><view id="navbar-search-green" viewBox="0 721 30 30"/><svg viewBox="-2 -2 30 30" width="30" height="30" id="navbar-search-green-" y="721" xmlns="http://www.w3.org/2000/svg"><path fill-rule="evenodd" clip-rule="evenodd" fill="#00BB23" d="M22 20.6l-4.5-4.5c.9-1.2 1.5-2.7 1.5-4.4 0-4-3.4-7.7-7.5-7.7S4 7.7 4 11.7 7.4 19 11.5 19c1.7 0 3.3-.6 4.6-1.5l4.5 4.5 1.4-1.4zm-10.5-3.5c-3.1 0-5.6-2.5-5.6-5.6 0-3.1 2.5-5.6 5.6-5.6s5.6 2.5 5.6 5.6c0 3.1-2.5 5.6-5.6 5.6z"/></svg><view id="navbar-search-white" viewBox="0 751 46 46"/><svg viewBox="-2 -2 46 46" width="46" height="46" id="navbar-search-white-" y="751" xmlns="http://www.w3.org/2000/svg"><path fill="#fff" d="M39.8 34l-9.6-9.6c1.3-2.3 2.1-4.9 2.1-7.8C32.3 8 25.3 1 16.7 1h-.1C7.9 1.1 1 8 1 16.6v.1c.1 8.6 7 15.5 15.6 15.5 2.8 0 5.5-.8 7.8-2.1l9.6 9.6c.8.8 1.8 1.2 2.9 1.2 1 0 2.1-.4 2.9-1.2 1.6-1.5 1.6-4.1 0-5.7zm-23.1-7.8c-5.3 0-9.5-4.3-9.5-9.5s4.2-9.5 9.5-9.5h.2c5.2.1 9.3 4.3 9.3 9.5s-4.3 9.5-9.5 9.5z"/></svg><view id="ndp-facebook" viewBox="0 797 44 44"/><svg viewBox="-2 -2 44 44" width="44" height="44" id="ndp-facebook-" y="797" xmlns="http://www.w3.org/2000/svg"><path fill-rule="evenodd" clip-rule="evenodd" fill="#999" d="M29 9H11c-1.1 0-2 .9-2 2v18c0 1.1.9 2 2 2h9v-7h-2.5v-3H20v-2.5c0-2.4 2.4-3.6 3.3-3.5 1 0 2.6.1 2.6.1v2.8H24c-1.1 0-1.1 1.2-1.1 1.2V21h2.9l-.4 3H23v7h6c1.1 0 2-.9 2-2V11c0-1.1-.9-2-2-2z"/></svg><view id="ndp-line" viewBox="0 841 44 44"/><svg viewBox="-2 -2 44 44" width="44" height="44" id="ndp-line-" y="841" xmlns="http://www.w3.org/2000/svg"><path fill="#999" d="M33 18.2C33 12.6 27.4 8 20.5 8S8 12.6 8 18.2c0 5.1 4.4 9.3 10.5 10.1.4.1 1 .3 1.1.6.1.3.1.8 0 1.1 0 0-.1.9-.2 1.1-.1.3-.3 1.2 1.1.7 1.3-.6 7.2-4.3 9.8-7.3 1.8-2 2.7-4 2.7-6.3zM15.3 22h-2.6c-.4 0-.7-.3-.7-.7v-5.5c0-.4.3-.7.7-.7s.7.3.7.7v4.8h1.9c.4 0 .7.3.7.7-.1.4-.4.7-.7.7zm2.6-.7c0 .4-.3.7-.7.7-.4 0-.7-.3-.7-.7v-5.5c0-.4.3-.7.7-.7.4 0 .7.3.7.7v5.5zm6.2 0c0 .3-.2.6-.5.7h-.2c-.2 0-.4-.1-.5-.3l-2.6-3.9v3.4c0 .4-.3.7-.7.7-.4 0-.7-.3-.7-.7v-5.5c0-.3.2-.6.5-.7h.2c.2 0 .4.1.5.3l2.6 3.9v-3.4c0-.4.3-.7.7-.7.4 0 .7.3.7.7v5.5zm4.2-3.5c.4 0 .7.3.7.7 0 .4-.3.7-.7.7h-1.9v1.3h1.9c.4 0 .7.3.7.7 0 .4-.3.7-.7.7h-2.6c-.4 0-.7-.3-.7-.7v-5.5c0-.4.3-.7.7-.7h2.6c.4 0 .7.3.7.7 0 .4-.3.7-.7.7h-1.9v1.3h1.9z"/></svg><view id="ndp-share" viewBox="0 885 44 44"/><svg viewBox="-2 -2 44 44" width="44" height="44" id="ndp-share-" y="885" xmlns="http://www.w3.org/2000/svg"><path fill-rule="evenodd" clip-rule="evenodd" fill="#777" d="M26.5 23.7c-1.8-.9-2.9.2-4.6-.3l-3.3-1.8c-.9-.4-1.3-1-1.6-1.6.3-.6.8-1.2 1.6-1.6l3.2-1.8c1.8-.6 2.9.6 4.7-.3 1.4-.7 1.9-2.4 1.2-3.8s-2.3-2-3.7-1.3c-2 1-1.5 2.9-3.6 4l-3.7 1.9c-1.5.3-2.6-.7-4.2.2-1 .5-1.6 1.7-1.5 2.8 0 1 .6 2 1.5 2.5 1.6.8 2.7-.1 4.2.2l3.7 1.9c2.1 1.1 1.6 3 3.6 4 1.4.7 3 .1 3.7-1.3s.1-3-1.2-3.7z"/></svg><view id="pin" viewBox="0 929 34 34"/><svg viewBox="-2 -2 34 34" width="34" height="34" id="pin-" y="929" xmlns="http://www.w3.org/2000/svg"><path fill="#7A7A7A" d="M15 .5C9.1.5 4.3 5 4.3 10.6c0 1 .2 2 .5 2.9.5 1.6 1.9 3.8 2.9 5.2 1.8 2.4 3.1 4.4 4.8 7.1.6 1 1.2 2.1 1.8 3.2v.1c.1.2.4.4.7.4.3 0 .5-.1.7-.4V29c.5-1.1 1.1-2.2 1.8-3.2 1.6-2.7 3-4.6 4.7-7.1 1-1.4 2.4-3.6 2.9-5.2.3-.9.5-1.9.5-2.9C25.7 5 20.9.5 15 .5zm0 13.9c-2.1 0-3.7-1.7-3.7-3.7S12.9 7 15 7s3.7 1.7 3.7 3.7c0 2.1-1.6 3.7-3.7 3.7z"/></svg><view id="site-logo" viewBox="0 963 102 28"/><svg viewBox="-2 -2 102 28" width="102" height="28" id="site-logo-" y="963" xmlns="http://www.w3.org/2000/svg"><path fill="#333" d="M54.4 12.1l-1.4-.3c-1.1-.2-1.8-.4-1.8-1.2-.1-.8.6-1.6 1.8-1.6 2.1 0 2.2 1.7 3.5 1.7.9 0 1.4-.4 1.4-1.2 0-1.6-2.5-2.6-5.2-2.6-2.4 0-5.2 1.1-5.2 4 0 2.3 1.6 3.2 3.6 3.7l2 .5c1.2.3 2 .5 2 1.3 0 .7-.8 1.4-2 1.4-2.5 0-2.7-2.2-4.2-2.2-1 0-1.4.7-1.4 1.5 0 1.7 2.6 3.1 5.7 3.1 2.6 0 5.3-1.3 5.3-4.2.1-2.6-2.2-3.4-4.1-3.9zM40 6.9c-4.1 0-6.4 2.9-6.4 6.5 0 3.5 1.7 6.5 6.4 6.5s6.4-3.1 6.4-6.5c0-3.7-2.2-6.5-6.4-6.5zm0 11c-2.1 0-2.9-2.4-2.9-4.5 0-2.3.9-4.4 2.9-4.4s2.9 2.1 2.9 4.4c.1 2.1-.8 4.5-2.9 4.5zm-12.2-11c-1.7 0-3 .6-3.7 1.5V3.7c0-1.1-.7-1.7-1.7-1.7s-1.7.6-1.7 1.7v14.5c0 .9.4 1.7 1.7 1.7 1.3 0 1.7-.8 1.7-1.7v-5.7c0-1.7 1.4-2.7 2.6-2.7 1.5 0 2.2 1 2.2 2.4v6.1c0 .9.4 1.7 1.7 1.7 1.3 0 1.7-.8 1.7-1.7v-6.8c0-3.6-2.4-4.6-4.5-4.6zm42 8.1c-1.8 0-1.3 2.5-3.7 2.5-1.9 0-2.9-1.7-2.9-3.9 0-2.9 1-4.5 2.6-4.5 2.7 0 1.8 2.2 3.9 2.2.8 0 1.2-.5 1.2-1.2 0-1.7-2.4-3.4-5-3.4-4 0-6.1 2.5-6.1 6.8 0 3.6 2 6.3 6.3 6.3 3.5 0 5.2-2.1 5.2-3.6 0-.7-.6-1.2-1.5-1.2zm14.4-4.6c0-2.5-2.3-3.6-5.6-3.6-3.5 0-5.5 1.7-5.5 3.1 0 .7.6 1.3 1.5 1.3 1.4 0 1.4-2.3 4-2.3 1.2 0 2.2.6 2.2 1.6s-.7 1.4-1.5 1.5l-2.1.2c-2.6.3-4.8 1.1-4.8 4 0 2.2 1.9 3.5 3.9 3.5 1.8 0 3.4-.5 4.7-2 0 1.1.5 2 2 2 .8 0 1.6-.5 1.6-1.3 0-.5-.4-.9-.4-2.3v-5.7zm-3.5 4.3c0 1.6-1.5 3-3 3-1.2 0-1.9-.6-1.9-1.5 0-1.2.8-1.7 2.2-2l1.2-.2c.4-.1 1.1-.2 1.5-.6v1.3zM94.3 2c-1 0-1.7.6-1.7 1.7v14.5c0 1.1.7 1.7 1.7 1.7s1.7-.6 1.7-1.7V3.7c0-1.1-.7-1.7-1.7-1.7zm-5.9 0c-1 0-1.7.6-1.7 1.7v14.5c0 1.1.7 1.7 1.7 1.7s1.7-.6 1.7-1.7V3.7c0-1.1-.7-1.7-1.7-1.7zM17.6 6.9c-.8 0-1.4.5-1.6 1.3l-1.7 6.7-1.7-6.7c-.2-.8-.8-1.3-1.6-1.3h-.7c-.8 0-1.5.6-1.6 1.3l-1.6 6.7-1.7-6.7c-.2-.8-.9-1.3-1.6-1.3h-.2c-1.1 0-1.8 1-1.5 2.1l2.6 9.3c.3 1 1.1 1.7 2.1 1.7s2-.7 2.2-1.8l1.7-6.6 1.6 6.6c.2 1 1.1 1.8 2.2 1.8 1 0 1.9-.7 2.1-1.6L19.2 9c.3-1.1-.5-2.1-1.6-2.1z"/></svg><view id="site-logo-dark-blue" viewBox="0 991 176 36"/><svg width="176" height="36" viewBox="-2 -2 176 36" id="site-logo-dark-blue-" y="991" xmlns="http://www.w3.org/2000/svg"><path fill="#263147" fill-rule="evenodd" d="M15.139 8.57h1.347c1.415 0 2.636.976 2.93 2.34l3.075 11.828 3.152-11.842c.298-1.357 1.516-2.326 2.926-2.326 1.993 0 3.43 1.884 2.875 3.772l-4.853 16.5c-.501 1.706-2.087 2.88-3.89 2.88-1.908 0-3.557-1.313-3.96-3.151l-2.995-11.7-3.028 11.686c-.408 1.847-2.068 3.165-3.986 3.165-1.828 0-3.434-1.2-3.928-2.935L.114 12.32c-.537-1.883.899-3.75 2.881-3.75h.232c1.408 0 2.626.968 2.926 2.324l3.15 11.781 2.9-11.735c.28-1.378 1.51-2.37 2.936-2.37zM168.773 0c1.895 0 3.095 1.049 3.095 3.062V28.54c0 2.014-1.25 3.063-3.145 3.063-1.896 0-3.145-1.049-3.145-3.063V3.062c0-2.013 1.3-3.062 3.195-3.062zM157.98 0c1.897 0 3.096 1.049 3.096 3.062V28.54c0 2.014-1.25 3.063-3.145 3.063-1.896 0-3.145-1.049-3.145-3.063V3.062c0-2.013 1.3-3.062 3.194-3.062zm-7.772 14.866v10.277c0 2.559.646 3.146.646 4.11 0 1.385-1.335 2.35-2.843 2.35-2.714 0-3.619-1.678-3.705-3.566-2.455 2.643-5.298 3.566-8.615 3.566-3.577 0-7.109-2.391-7.109-6.25 0-5.076 3.964-6.502 8.789-7.049l3.833-.418c1.508-.168 2.715-.882 2.715-2.644s-1.852-2.895-3.964-2.895c-4.652 0-4.782 4.014-7.28 4.014-1.594 0-2.67-1.09-2.67-2.349 0-2.433 3.531-5.438 9.993-5.438 6.032 0 10.21 1.886 10.21 6.292zm-6.29 7.576v-2.35c-.689.723-1.981.963-2.714 1.109l-2.282.385c-2.628.434-4.05 1.35-4.05 3.47 0 1.592 1.336 2.648 3.49 2.648 2.74 0 5.557-2.45 5.557-5.262zm-19.942.436c1.594 0 2.646.921 2.64 2.349-.011 2.684-3.07 6.376-9.532 6.376-7.754 0-11.471-4.655-11.471-11.074 0-7.637 3.972-11.955 11.225-11.955 4.824 0 9.197 2.913 9.197 5.928 0 1.087-.718 2.056-2.187 2.056-3.793 0-2.117-3.938-7.123-3.938-3.06 0-4.822 2.812-4.822 7.909 0 3.817 1.886 6.832 5.332 6.832 4.394 0 3.423-4.483 6.741-4.483zM95.721 17.79c3.576.802 7.841 2.28 7.841 6.585 0 5.025-4.955 7.346-9.693 7.346-5.686 0-10.425-2.49-10.425-5.53 0-1.351.776-2.575 2.541-2.575 2.715 0 2.973 3.948 7.626 3.948 2.24 0 3.661-1.12 3.661-2.386 0-1.562-1.378-1.815-3.617-2.365l-3.706-.886c-3.662-.886-6.505-2.364-6.505-6.5 0-5.025 5.084-6.975 9.434-6.975 4.783 0 9.426 1.832 9.426 4.66 0 1.436-.954 2.198-2.59 2.198-2.456 0-2.537-2.963-6.462-2.963-2.197 0-3.519 1.347-3.519 2.657 0 1.434 1.422 1.773 3.361 2.195l2.627.59zM69.545 8.574c7.582 0 11.632 5.033 11.632 11.493 0 6.124-3.058 11.536-11.632 11.536-8.572 0-11.631-5.412-11.631-11.536 0-6.46 4.05-11.493 11.631-11.493zm0 19.381c3.749 0 5.343-4.155 5.343-7.888 0-3.985-1.681-7.728-5.343-7.728-3.66 0-5.341 3.743-5.341 7.728 0 3.733 1.594 7.888 5.341 7.888zM47.21 8.574c3.79 0 8.153 1.845 8.153 8.055V28.54c0 1.636-.69 3.063-3.145 3.063-2.456 0-3.144-1.427-3.144-3.063V17.844c0-2.475-1.25-4.237-3.965-4.237-2.196 0-4.78 1.762-4.78 4.824v10.11c0 1.635-.69 3.062-3.146 3.062-2.455 0-3.145-1.427-3.145-3.063V3.062C34.037 1.05 35.287 0 37.182 0s3.145 1.049 3.145 3.062v8.152h.086c1.25-1.593 3.598-2.64 6.796-2.64z"/></svg><view id="site-logo-white" viewBox="0 1027 176 36"/><svg width="176" height="36" viewBox="-2 -2 176 36" id="site-logo-white-" y="1027" xmlns="http://www.w3.org/2000/svg"><path fill="#FFF" fill-rule="evenodd" d="M15.139 8.57h1.347c1.415 0 2.636.976 2.93 2.34l3.075 11.828 3.152-11.842c.298-1.357 1.516-2.326 2.926-2.326 1.993 0 3.43 1.884 2.875 3.772l-4.853 16.5c-.501 1.706-2.087 2.88-3.89 2.88-1.908 0-3.557-1.313-3.96-3.151l-2.995-11.7-3.028 11.686c-.408 1.847-2.068 3.165-3.986 3.165-1.828 0-3.434-1.2-3.928-2.935L.114 12.32c-.537-1.883.899-3.75 2.881-3.75h.232c1.408 0 2.626.968 2.926 2.324l3.15 11.781 2.9-11.735c.28-1.378 1.51-2.37 2.936-2.37zM168.773 0c1.895 0 3.095 1.049 3.095 3.062V28.54c0 2.014-1.25 3.063-3.145 3.063-1.896 0-3.145-1.049-3.145-3.063V3.062c0-2.013 1.3-3.062 3.195-3.062zM157.98 0c1.897 0 3.096 1.049 3.096 3.062V28.54c0 2.014-1.25 3.063-3.145 3.063-1.896 0-3.145-1.049-3.145-3.063V3.062c0-2.013 1.3-3.062 3.194-3.062zm-7.772 14.866v10.277c0 2.559.646 3.146.646 4.11 0 1.385-1.335 2.35-2.843 2.35-2.714 0-3.619-1.678-3.705-3.566-2.455 2.643-5.298 3.566-8.615 3.566-3.577 0-7.109-2.391-7.109-6.25 0-5.076 3.964-6.502 8.789-7.049l3.833-.418c1.508-.168 2.715-.882 2.715-2.644s-1.852-2.895-3.964-2.895c-4.652 0-4.782 4.014-7.28 4.014-1.594 0-2.67-1.09-2.67-2.349 0-2.433 3.531-5.438 9.993-5.438 6.032 0 10.21 1.886 10.21 6.292zm-6.29 7.576v-2.35c-.689.723-1.981.963-2.714 1.109l-2.282.385c-2.628.434-4.05 1.35-4.05 3.47 0 1.592 1.336 2.648 3.49 2.648 2.74 0 5.557-2.45 5.557-5.262zm-19.942.436c1.594 0 2.646.921 2.64 2.349-.011 2.684-3.07 6.376-9.532 6.376-7.754 0-11.471-4.655-11.471-11.074 0-7.637 3.972-11.955 11.225-11.955 4.824 0 9.197 2.913 9.197 5.928 0 1.087-.718 2.056-2.187 2.056-3.793 0-2.117-3.938-7.123-3.938-3.06 0-4.822 2.812-4.822 7.909 0 3.817 1.886 6.832 5.332 6.832 4.394 0 3.423-4.483 6.741-4.483zM95.721 17.79c3.576.802 7.841 2.28 7.841 6.585 0 5.025-4.955 7.346-9.693 7.346-5.686 0-10.425-2.49-10.425-5.53 0-1.351.776-2.575 2.541-2.575 2.715 0 2.973 3.948 7.626 3.948 2.24 0 3.661-1.12 3.661-2.386 0-1.562-1.378-1.815-3.617-2.365l-3.706-.886c-3.662-.886-6.505-2.364-6.505-6.5 0-5.025 5.084-6.975 9.434-6.975 4.783 0 9.426 1.832 9.426 4.66 0 1.436-.954 2.198-2.59 2.198-2.456 0-2.537-2.963-6.462-2.963-2.197 0-3.519 1.347-3.519 2.657 0 1.434 1.422 1.773 3.361 2.195l2.627.59zM69.545 8.574c7.582 0 11.632 5.033 11.632 11.493 0 6.124-3.058 11.536-11.632 11.536-8.572 0-11.631-5.412-11.631-11.536 0-6.46 4.05-11.493 11.631-11.493zm0 19.381c3.749 0 5.343-4.155 5.343-7.888 0-3.985-1.681-7.728-5.343-7.728-3.66 0-5.341 3.743-5.341 7.728 0 3.733 1.594 7.888 5.341 7.888zM47.21 8.574c3.79 0 8.153 1.845 8.153 8.055V28.54c0 1.636-.69 3.063-3.145 3.063-2.456 0-3.144-1.427-3.144-3.063V17.844c0-2.475-1.25-4.237-3.965-4.237-2.196 0-4.78 1.762-4.78 4.824v10.11c0 1.635-.69 3.062-3.146 3.062-2.455 0-3.145-1.427-3.145-3.063V3.062C34.037 1.05 35.287 0 37.182 0s3.145 1.049 3.145 3.062v8.152h.086c1.25-1.593 3.598-2.64 6.796-2.64z"/></svg><view id="small-arrow" viewBox="0 1063 12 12"/><svg width="12" height="12" viewBox="-2 -4 12 12" overflow="visible" id="small-arrow-" y="1063" xmlns="http://www.w3.org/2000/svg"><path fill-rule="evenodd" clip-rule="evenodd" fill="#787878" d="M3.463 3.419L7.298 0l.704.55-3.851 3.451L3.838 4l-.375-.581z"/><path fill-rule="evenodd" clip-rule="evenodd" fill="#787878" d="M3.851 4.001l.688-.582L.704 0 0 .55l3.851 3.451z"/></svg></svg>